<svg width="372" height="52" viewBox="0 0 372 52" fill="none" xmlns="http://www.w3.org/2000/svg">
<rect width="372" height="51.2288" rx="7.88136" fill="#F4F7FF"/>
<path d="M130.243 23.9699L122.528 23.9695C122.187 23.9695 121.911 24.2456 121.911 24.5863V27.051C121.911 27.3916 122.187 27.6678 122.528 27.6678H126.873C126.397 28.9025 125.509 29.9365 124.376 30.5936L126.229 33.8006C129.201 32.0819 130.958 29.0662 130.958 25.6903C130.958 25.2097 130.922 24.866 130.851 24.4791C130.797 24.1852 130.542 23.9699 130.243 23.9699Z" fill="#167EE6"/>
<path d="M121.499 31.3713C119.373 31.3713 117.516 30.2096 116.519 28.4905L113.312 30.3389C114.945 33.1674 118.002 35.0721 121.499 35.0721C123.214 35.0721 124.833 34.6102 126.228 33.8053V33.8009L124.375 30.5938C123.528 31.0853 122.547 31.3713 121.499 31.3713Z" fill="#12B347"/>
<path d="M126.229 33.8047V33.8003L124.376 30.5932C123.529 31.0847 122.548 31.3708 121.5 31.3708V35.0716C123.216 35.0716 124.835 34.6097 126.229 33.8047Z" fill="#0F993E"/>
<path d="M115.743 25.6145C115.743 24.5664 116.029 23.5859 116.521 22.7385L113.314 20.8901C112.504 22.2802 112.042 23.8945 112.042 25.6145C112.042 27.3345 112.504 28.9488 113.314 30.3389L116.521 28.4905C116.029 27.6431 115.743 26.6626 115.743 25.6145Z" fill="#FFD500"/>
<path d="M121.499 19.8574C122.885 19.8574 124.159 20.3501 125.154 21.1696C125.399 21.3718 125.756 21.3572 125.981 21.1324L127.727 19.3861C127.982 19.131 127.964 18.7135 127.692 18.4771C126.025 17.0312 123.856 16.1566 121.499 16.1566C118.002 16.1566 114.945 18.0613 113.312 20.8898L116.519 22.7383C117.516 21.0192 119.373 19.8574 121.499 19.8574Z" fill="#FF4B26"/>
<path d="M125.155 21.1696C125.4 21.3718 125.757 21.3572 125.982 21.1324L127.728 19.3861C127.983 19.131 127.965 18.7135 127.693 18.4771C126.026 17.0312 123.857 16.1566 121.5 16.1566V19.8574C122.887 19.8574 124.16 20.3501 125.155 21.1696Z" fill="#D93F21"/>
<path d="M139.677 27.3663H141.188C141.297 28.3439 142.248 28.9865 143.546 28.9865C144.791 28.9865 145.686 28.3439 145.686 27.462C145.686 26.6964 145.146 26.2384 143.868 25.924L142.589 25.6163C140.778 25.1788 139.937 24.3312 139.937 22.9572C139.937 21.255 141.42 20.0861 143.526 20.0861C145.611 20.0861 147.04 21.255 147.087 22.9572H145.597C145.508 21.9728 144.695 21.3781 143.505 21.3781C142.316 21.3781 141.502 21.9796 141.502 22.8546C141.502 23.5519 142.022 23.962 143.293 24.2765L144.38 24.5431C146.404 25.0216 147.245 25.8351 147.245 27.2775C147.245 29.1232 145.775 30.2784 143.437 30.2784C141.25 30.2784 139.773 29.1505 139.677 27.3663ZM148.489 30.1144V22.923H149.965V30.1144H148.489ZM149.227 21.8702C148.755 21.8702 148.373 21.4943 148.373 21.0294C148.373 20.5577 148.755 20.1818 149.227 20.1818C149.706 20.1818 150.088 20.5577 150.088 21.0294C150.088 21.4943 149.706 21.8702 149.227 21.8702ZM154.539 28.9181C155.694 28.9181 156.453 27.9816 156.453 26.4982C156.453 25.0216 155.694 24.0509 154.539 24.0509C153.404 24.0509 152.666 25.0011 152.666 26.4982C152.666 28.0021 153.404 28.9181 154.539 28.9181ZM154.552 32.8214C152.857 32.8214 151.599 31.9191 151.415 30.6749H152.898C153.11 31.2765 153.766 31.673 154.607 31.673C155.762 31.673 156.446 31.0167 156.446 30.0323V28.8497H156.418C156.015 29.629 155.167 30.1417 154.142 30.1417C152.337 30.1417 151.155 28.7335 151.155 26.4913C151.155 24.2286 152.331 22.8068 154.176 22.8068C155.195 22.8068 156.029 23.3195 156.466 24.1534H156.494V22.923H157.929V29.9845C157.929 31.7003 156.603 32.8214 154.552 32.8214ZM159.392 30.1144V22.923H160.8V24.1261H160.834C161.224 23.3058 161.99 22.7999 163.097 22.7999C164.683 22.7999 165.592 23.8116 165.592 25.4591V30.1144H164.109V25.7462C164.109 24.6661 163.603 24.0714 162.578 24.0714C161.539 24.0714 160.869 24.8097 160.869 25.924V30.1144H159.392ZM176.031 22.923V30.1144H174.616V28.8976H174.582C174.185 29.7589 173.454 30.2443 172.353 30.2443C170.788 30.2443 169.831 29.2257 169.831 27.5782V22.923H171.307V27.2911C171.307 28.3849 171.827 28.9728 172.845 28.9728C173.912 28.9728 174.554 28.2345 174.554 27.1134V22.923H176.031ZM181.24 22.8068C183.065 22.8068 184.268 24.2423 184.268 26.5187C184.268 28.795 183.072 30.2374 181.267 30.2374C180.235 30.2374 179.415 29.7316 179.004 28.9318H178.97V32.4933H177.494V22.923H178.922V24.1603H178.95C179.374 23.3331 180.201 22.8068 181.24 22.8068ZM180.85 28.9865C182.019 28.9865 182.75 28.0294 182.75 26.5187C182.75 25.0148 182.019 24.0509 180.85 24.0509C179.722 24.0509 178.963 25.0353 178.963 26.5187C178.963 28.0157 179.715 28.9865 180.85 28.9865ZM197.742 22.923L195.773 30.1144H194.235L192.724 24.7277H192.69L191.193 30.1144H189.668L187.693 22.923H189.169L190.482 28.5831H190.509L192.006 22.923H193.428L194.932 28.5831H194.966L196.279 22.923H197.742ZM198.692 30.1144V22.923H200.168V30.1144H198.692ZM199.43 21.8702C198.958 21.8702 198.576 21.4943 198.576 21.0294C198.576 20.5577 198.958 20.1818 199.43 20.1818C199.909 20.1818 200.292 20.5577 200.292 21.0294C200.292 21.4943 199.909 21.8702 199.43 21.8702ZM202.11 21.2208H203.593V22.923H204.96V24.0919H203.593V28.0568C203.593 28.6788 203.867 28.9591 204.468 28.9591C204.619 28.9591 204.858 28.9454 204.954 28.9249V30.0939C204.79 30.1349 204.461 30.1622 204.133 30.1622C202.677 30.1622 202.11 29.6085 202.11 28.2208V24.0919H201.064V22.923H202.11V21.2208ZM206.232 30.1144V20.2501H207.695V24.1261H207.729C208.125 23.2853 208.912 22.7999 210.005 22.7999C211.584 22.7999 212.528 23.8527 212.528 25.4796V30.1144H211.044V25.7667C211.044 24.7072 210.511 24.0714 209.472 24.0714C208.378 24.0714 207.708 24.8234 207.708 25.9581V30.1144H206.232ZM225.475 26.0128C225.475 28.6857 223.896 30.2784 221.223 30.2784C218.4 30.2784 216.623 28.3029 216.623 25.1378C216.623 22.0275 218.393 20.0861 221.203 20.0861C223.397 20.0861 225.058 21.3849 225.4 23.3536H223.828C223.458 22.13 222.495 21.4259 221.209 21.4259C219.323 21.4259 218.188 22.8068 218.188 25.1241C218.188 27.4825 219.357 28.9386 221.237 28.9386C222.836 28.9386 223.944 27.9132 223.964 26.4161V26.2452H221.415V25.0079H225.475V26.0128ZM229.884 30.2511C227.827 30.2511 226.473 28.8361 226.473 26.5187C226.473 24.2081 227.833 22.7931 229.884 22.7931C231.935 22.7931 233.295 24.2081 233.295 26.5187C233.295 28.8361 231.942 30.2511 229.884 30.2511ZM229.884 29.0343C231.046 29.0343 231.792 28.1183 231.792 26.5187C231.792 24.9259 231.04 24.0099 229.884 24.0099C228.729 24.0099 227.977 24.9259 227.977 26.5187C227.977 28.1183 228.729 29.0343 229.884 29.0343ZM237.527 30.2511C235.469 30.2511 234.116 28.8361 234.116 26.5187C234.116 24.2081 235.476 22.7931 237.527 22.7931C239.578 22.7931 240.938 24.2081 240.938 26.5187C240.938 28.8361 239.584 30.2511 237.527 30.2511ZM237.527 29.0343C238.689 29.0343 239.434 28.1183 239.434 26.5187C239.434 24.9259 238.682 24.0099 237.527 24.0099C236.372 24.0099 235.62 24.9259 235.62 26.5187C235.62 28.1183 236.372 29.0343 237.527 29.0343ZM245.142 28.9181C246.297 28.9181 247.056 27.9816 247.056 26.4982C247.056 25.0216 246.297 24.0509 245.142 24.0509C244.007 24.0509 243.269 25.0011 243.269 26.4982C243.269 28.0021 244.007 28.9181 245.142 28.9181ZM245.156 32.8214C243.46 32.8214 242.203 31.9191 242.018 30.6749H243.501C243.713 31.2765 244.37 31.673 245.21 31.673C246.366 31.673 247.049 31.0167 247.049 30.0323V28.8497H247.022C246.619 29.629 245.771 30.1417 244.746 30.1417C242.941 30.1417 241.758 28.7335 241.758 26.4913C241.758 24.2286 242.934 22.8068 244.78 22.8068C245.798 22.8068 246.632 23.3195 247.07 24.1534H247.097V22.923H248.533V29.9845C248.533 31.7003 247.207 32.8214 245.156 32.8214ZM250.05 30.1144V20.2501H251.527V30.1144H250.05ZM256.052 23.9825C255.02 23.9825 254.295 24.7687 254.22 25.8556H257.816C257.782 24.755 257.084 23.9825 256.052 23.9825ZM257.809 28.0021H259.21C259.005 29.3146 257.761 30.2511 256.114 30.2511C254.001 30.2511 252.723 28.8224 252.723 26.5529C252.723 24.297 254.022 22.7931 256.052 22.7931C258.048 22.7931 259.292 24.2013 259.292 26.382V26.8878H254.213V26.9767C254.213 28.2277 254.965 29.0548 256.148 29.0548C256.989 29.0548 257.611 28.631 257.809 28.0021Z" fill="#131212"/>
</svg>
